<?xml version="1.0" standalone="no"?>
<!DOCTYPE svg PUBLIC "-//W3C//DTD SVG 20010904//EN"
 "http://www.w3.org/TR/2001/REC-SVG-20010904/DTD/svg10.dtd">
<svg version="1.0" xmlns="http://www.w3.org/2000/svg"
 width="48.000000pt" height="42.000000pt" viewBox="0 0 48.000000 42.000000"
 preserveAspectRatio="xMidYMid meet">

<g transform="translate(0.000000,42.000000) scale(0.100000,-0.100000)"
fill="#000000" stroke="none">
<path d="M156 354 c-38 -13 -71 -25 -73 -27 -2 -2 2 -48 8 -102 l12 -97 72
-35 72 -36 63 34 c73 39 77 47 82 166 l3 76 -69 23 c-84 29 -83 29 -170 -2z
m133 -106 c24 -51 45 -98 47 -103 9 -23 -34 -12 -45 11 -9 20 -18 24 -51 24
-33 0 -42 -4 -52 -25 -10 -21 -48 -37 -48 -19 0 13 93 204 100 204 3 0 26 -42
49 -92z"/>
<path d="M230 251 c0 -5 -3 -16 -6 -25 -4 -12 0 -16 15 -16 22 0 25 8 15 34
-7 17 -24 22 -24 7z"/>
</g>
</svg>
